<?xml version="1.0" encoding="UTF-8" standalone="no"?>
<!-- Created with Inkscape (http://www.inkscape.org/) -->

<svg
   width="210mm"
   height="297mm"
   viewBox="0 0 210 297"
   version="1.1"
   id="svg2083"
   inkscape:export-filename="es-model.pdf"
   inkscape:export-xdpi="96"
   inkscape:export-ydpi="96"
   inkscape:version="1.2.1 (9c6d41e, 2022-07-14)"
   sodipodi:docname="model-es.svg"
   xmlns:inkscape="http://www.inkscape.org/namespaces/inkscape"
   xmlns:sodipodi="http://sodipodi.sourceforge.net/DTD/sodipodi-0.dtd"
   xmlns="http://www.w3.org/2000/svg"
   xmlns:svg="http://www.w3.org/2000/svg">
  <sodipodi:namedview
     id="namedview2085"
     pagecolor="#ffffff"
     bordercolor="#000000"
     borderopacity="0.25"
     inkscape:showpageshadow="2"
     inkscape:pageopacity="0.0"
     inkscape:pagecheckerboard="0"
     inkscape:deskcolor="#d1d1d1"
     inkscape:document-units="mm"
     showgrid="false"
     inkscape:zoom="0.79543597"
     inkscape:cx="275.9493"
     inkscape:cy="278.46365"
     inkscape:window-width="1800"
     inkscape:window-height="1097"
     inkscape:window-x="0"
     inkscape:window-y="44"
     inkscape:window-maximized="1"
     inkscape:current-layer="g272" />
  <defs
     id="defs2080">
    <clipPath
       clipPathUnits="userSpaceOnUse"
       id="clipPath40">
      <path
         d="M 0,0 H 660.05963 V 319.81805 H 0 Z"
         id="path38" />
    </clipPath>
  </defs>
  <g
     inkscape:label="Layer 1"
     inkscape:groupmode="layer"
     id="layer1">
    <g
       id="g32"
       transform="matrix(0.26196572,0,0,-0.26196572,20.643783,101.85946)"
       inkscape:export-filename="es-model.pdf"
       inkscape:export-xdpi="96"
       inkscape:export-ydpi="96">
      <g
         id="g34">
        <g
           id="g36" />
        <g
           id="g274">
          <g
             clip-path="url(#clipPath40)"
             id="g272">
            <g
               id="g270"
               inkscape:export-filename="es-model.pdf"
               inkscape:export-xdpi="96"
               inkscape:export-ydpi="96">
              <path
                 d="m 293.965,229.279 -135,-78.75 h 135"
                 style="fill:#ffaaaa;fill-opacity:0.441899;fill-rule:nonzero;stroke:none"
                 id="path42" />
              <g
                 transform="matrix(1,0,0,-1,0,319.81805)"
                 id="g46">
                <path
                   d="m 152.23,11.789 c 0,102.496 0,204.996 0,307.5"
                   style="fill:none;stroke:#000000;stroke-width:0.799101;stroke-linecap:round;stroke-linejoin:miter;stroke-miterlimit:4;stroke-dasharray:none;stroke-opacity:1"
                   id="path44" />
              </g>
              <g
                 transform="matrix(0,-1,-1,0,0,319.81805)"
                 id="g50">
                <path
                   d="m 19.777,-152.23 3.2,-3.2 -11.188,3.2 11.188,3.195 z"
                   style="fill:#000000;fill-opacity:1;fill-rule:evenodd;stroke:#000000;stroke-width:0.852374;stroke-linecap:butt;stroke-linejoin:miter;stroke-miterlimit:4;stroke-dasharray:none;stroke-opacity:1"
                   id="path48" />
              </g>
              <g
                 transform="matrix(1,0,0,-1,0,319.81805)"
                 id="g54">
                <path
                   d="m 10.5,169.289 c 94.488,0 188.977,0 283.465,0"
                   style="fill:none;stroke:#000000;stroke-width:0.856211;stroke-linecap:butt;stroke-linejoin:miter;stroke-miterlimit:4;stroke-dasharray:none;stroke-opacity:1"
                   id="path52" />
              </g>
              <g
                 transform="matrix(1,0,0,-1,0,319.81805)"
                 id="g58">
                <path
                   d="m 1.465,169.289 c 105,0 210,0 315,0"
                   style="fill:none;stroke:#000000;stroke-width:0.915813;stroke-linecap:butt;stroke-linejoin:miter;stroke-miterlimit:4;stroke-dasharray:none;stroke-opacity:1"
                   id="path56" />
              </g>
              <g
                 transform="matrix(-1,0,0,1,0,319.81805)"
                 id="g62">
                <path
                   d="m -307.305,-169.289 3.66,-3.66 -12.82,3.66 12.82,3.664 z"
                   style="fill:#000000;fill-opacity:1;fill-rule:evenodd;stroke:#000000;stroke-width:0.976867;stroke-linecap:butt;stroke-linejoin:miter;stroke-miterlimit:4;stroke-dasharray:none;stroke-opacity:1"
                   id="path60" />
              </g>
              <g
                 transform="matrix(1,0,0,-1,0,319.81805)"
                 id="g66">
                <path
                   d="m 1.465,256.332 c 102.5,-59.18 205,-118.355 307.5,-177.535"
                   style="fill:#000000;fill-opacity:1;fill-rule:nonzero;stroke:#000000;stroke-width:0.928651;stroke-linecap:butt;stroke-linejoin:miter;stroke-miterlimit:4;stroke-dasharray:none;stroke-opacity:1"
                   id="path64" />
              </g>
              <g
                 transform="matrix(-1,-0.57735,-0.57735,1,0,319.81805)"
                 id="g70">
                <path
                   d="m -189.56,-192.884 3.217,-3.217 -11.261,3.218 11.261,3.216 z"
                   style="fill:#000000;fill-opacity:1;fill-rule:evenodd;stroke:#000000;stroke-width:0.857851;stroke-linecap:butt;stroke-linejoin:miter;stroke-miterlimit:4;stroke-dasharray:none;stroke-opacity:1"
                   id="path68" />
              </g>
              <g
                 transform="matrix(1,0,0,-1,0,319.81805)"
                 id="g74">
                <path
                   d="m 1.465,81.551 c 102.5,59.422 205,118.84 307.5,178.261"
                   style="fill:#000000;fill-opacity:1;fill-rule:nonzero;stroke:#000000;stroke-width:0.930713;stroke-linecap:butt;stroke-linejoin:miter;stroke-miterlimit:4;stroke-dasharray:none;stroke-opacity:1"
                   id="path72" />
              </g>
              <g
                 transform="matrix(-1,0.579717,0.579717,1,0,319.81805)"
                 id="g78">
                <path
                   d="m -335.926,-60.402 3.218,-3.222 -11.272,3.223 11.272,3.219 z"
                   style="fill:#000000;fill-opacity:1;fill-rule:evenodd;stroke:#000000;stroke-width:0.858874;stroke-linecap:butt;stroke-linejoin:miter;stroke-miterlimit:4;stroke-dasharray:none;stroke-opacity:1"
                   id="path76" />
              </g>
              <g
                 transform="matrix(1,0,0,-1,0,319.81805)"
                 id="g82">
                <path
                   d="m 170.473,158.789 c 2.64,2.934 3.418,6.992 2.027,10.625"
                   style="fill:none;stroke:#000000;stroke-width:0.731514;stroke-linecap:butt;stroke-linejoin:miter;stroke-miterlimit:4;stroke-dasharray:none;stroke-opacity:1"
                   id="path80" />
              </g>
              <path
                 d="M 151.465,293.029 V 154.279 L 12.715,235.974"
                 style="fill:#ffaaaa;fill-opacity:0.441899;fill-rule:nonzero;stroke:none"
                 id="path84" />
              <path
                 d="m 151.465,293.029 v -138.75 l 139.41,81.695"
                 style="fill:#ffaaaa;fill-opacity:0.441899;fill-rule:nonzero;stroke:none"
                 id="path86" />
              <path
                 d="m 151.465,8.779 v 138 l 140.25,-80.941"
                 style="fill:#ffaaaa;fill-opacity:0.441899;fill-rule:nonzero;stroke:none"
                 id="path88" />
              <path
                 d="m 151.465,8.029 v 138.75 L 12.715,65.088"
                 style="fill:#ffaaaa;fill-opacity:0.441899;fill-rule:nonzero;stroke:none"
                 id="path90" />
              <path
                 d="m 8.965,229.279 135,-78.75 h -135"
                 style="fill:#ffaaaa;fill-opacity:0.441899;fill-rule:nonzero;stroke:none"
                 id="path92" />
              <path
                 d="m 8.965,71.779 135,78.75 h -135"
                 style="fill:#ffaaaa;fill-opacity:0.441899;fill-rule:nonzero;stroke:none"
                 id="path94" />
              <path
                 d="m 293.965,71.779 -135,78.75 h 135"
                 style="fill:#ffaaaa;fill-opacity:0.441899;fill-rule:nonzero;stroke:none"
                 id="path96" />
              <g
                 transform="matrix(1,0,0,-1,0,319.81805)"
                 id="g100">
                <path
                   d="m 482.617,11.914 c 0,102.496 0,204.996 0,307.5"
                   style="fill:none;stroke:#000000;stroke-width:0.799101;stroke-linecap:round;stroke-linejoin:miter;stroke-miterlimit:4;stroke-dasharray:none;stroke-opacity:1"
                   id="path98" />
              </g>
              <g
                 transform="matrix(0,-1,-1,0,0,319.81805)"
                 id="g104">
                <path
                   d="m 19.902,-482.617 3.2,-3.195 -11.188,3.195 11.188,3.195 z"
                   style="fill:#000000;fill-opacity:1;fill-rule:evenodd;stroke:#000000;stroke-width:0.852374;stroke-linecap:butt;stroke-linejoin:miter;stroke-miterlimit:4;stroke-dasharray:none;stroke-opacity:1"
                   id="path102" />
              </g>
              <g
                 transform="matrix(1,0,0,-1,0,319.81805)"
                 id="g108">
                <path
                   d="m 341.285,169.414 c 94.492,0 188.977,0 283.465,0"
                   style="fill:none;stroke:#000000;stroke-width:0.856211;stroke-linecap:butt;stroke-linejoin:miter;stroke-miterlimit:4;stroke-dasharray:none;stroke-opacity:1"
                   id="path106" />
              </g>
              <g
                 transform="matrix(1,0,0,-1,0,319.81805)"
                 id="g112">
                <path
                   d="m 332.25,169.414 c 105,0 210,0 315,0"
                   style="fill:none;stroke:#000000;stroke-width:0.915813;stroke-linecap:butt;stroke-linejoin:miter;stroke-miterlimit:4;stroke-dasharray:none;stroke-opacity:1"
                   id="path110" />
              </g>
              <g
                 transform="matrix(-1,0,0,1,0,319.81805)"
                 id="g116">
                <path
                   d="m -638.094,-169.414 3.664,-3.66 -12.82,3.66 12.82,3.664 z"
                   style="fill:#000000;fill-opacity:1;fill-rule:evenodd;stroke:#000000;stroke-width:0.976867;stroke-linecap:butt;stroke-linejoin:miter;stroke-miterlimit:4;stroke-dasharray:none;stroke-opacity:1"
                   id="path114" />
              </g>
              <g
                 transform="matrix(1,0,0,-1,0,319.81805)"
                 id="g120">
                <path
                   d="m 452.25,26.914 v 112.5 H 336"
                   style="fill:none;stroke:#000000;stroke-width:0.68282;stroke-linecap:butt;stroke-linejoin:miter;stroke-miterlimit:4;stroke-dasharray:none;stroke-opacity:1"
                   id="path118" />
              </g>
              <path
                 d="m 336,292.904 h 116.25 v -112.5 H 336 Z"
                 style="fill:#0000ff;fill-opacity:0.078431;fill-rule:nonzero;stroke:none"
                 id="path122" />
              <g
                 transform="matrix(1,0,0,-1,0,319.81805)"
                 id="g126">
                <path
                   d="m 512.25,26.914 v 112.5 H 628.5"
                   style="fill:none;stroke:#000000;stroke-width:0.68282;stroke-linecap:butt;stroke-linejoin:miter;stroke-miterlimit:4;stroke-dasharray:none;stroke-opacity:1"
                   id="path124" />
              </g>
              <path
                 d="M 512.25,292.904 H 628.5 v -112.5 H 512.25 Z"
                 style="fill:#0000ff;fill-opacity:0.078431;fill-rule:nonzero;stroke:none"
                 id="path128" />
              <g
                 transform="matrix(1,0,0,-1,0,319.81805)"
                 id="g132">
                <path
                   d="m 512.25,311.914 v -112.5 H 628.5"
                   style="fill:none;stroke:#000000;stroke-width:0.68282;stroke-linecap:butt;stroke-linejoin:miter;stroke-miterlimit:4;stroke-dasharray:none;stroke-opacity:1"
                   id="path130" />
              </g>
              <path
                 d="M 512.25,120.404 H 628.5 V 7.904 H 512.25 Z"
                 style="fill:#0000ff;fill-opacity:0.078431;fill-rule:nonzero;stroke:none"
                 id="path134" />
              <g
                 transform="matrix(1,0,0,-1,0,319.81805)"
                 id="g138">
                <path
                   d="m 452.25,311.914 v -112.5 H 336"
                   style="fill:none;stroke:#000000;stroke-width:0.68282;stroke-linecap:butt;stroke-linejoin:miter;stroke-miterlimit:4;stroke-dasharray:none;stroke-opacity:1"
                   id="path136" />
              </g>
              <path
                 d="M 336,120.404 H 452.25 V 7.904 H 336 Z"
                 style="fill:#0000ff;fill-opacity:0.078431;fill-rule:nonzero;stroke:none"
                 id="path140" />
              <path
                 d="m 336,180.404 h 91.24431 v -60 H 336 Z"
                 style="fill:#00ff00;fill-opacity:0.078431;fill-rule:nonzero;stroke:none;stroke-width:0.967388"
                 id="path142" />
              <g
                 transform="matrix(0.93583906,0,0,-1,21.558076,319.81805)"
                 id="g146">
                <path
                   d="m 433.5,139.414 v 60"
                   style="fill:none;stroke:#000000;stroke-width:0.898275;stroke-linecap:butt;stroke-linejoin:miter;stroke-miterlimit:4;stroke-dasharray:none;stroke-opacity:1"
                   id="path144" />
              </g>
              <path
                 d="M 538.80713,180.404 H 628.5 v -60 h -89.69287 z"
                 style="fill:#00ff00;fill-opacity:0.078431;fill-rule:nonzero;stroke:none;stroke-width:0.959128"
                 id="path148" />
              <g
                 transform="matrix(0.51547642,0,0,-1,50.325961,319.81805)"
                 id="g152">
                <path
                   d="m 947.631,139.414 v 60"
                   style="fill:none;stroke:#000000;stroke-width:1.2;stroke-linecap:butt;stroke-linejoin:miter;stroke-miterlimit:4;stroke-dasharray:none;stroke-opacity:1"
                   id="path150" />
              </g>
              <path
                 d="m 452.25,96.723211 h 60 V 7.904 h -60 z"
                 style="fill:#00ff00;fill-opacity:0.078431;fill-rule:nonzero;stroke:none;stroke-width:0.973347"
                 id="path154" />
              <g
                 transform="matrix(0,-0.51045514,-1,0,0,303.41291)"
                 id="g158">
                <path
                   d="m 404.912,-512.25 v 60"
                   style="fill:none;stroke:#000000;stroke-width:1.2;stroke-linecap:butt;stroke-linejoin:miter;stroke-miterlimit:4;stroke-dasharray:none;stroke-opacity:1"
                   id="path156" />
              </g>
              <path
                 d="m 452.25,292.904 h 60 v -87.17561 h -60 z"
                 style="fill:#00ff00;fill-opacity:0.078431;fill-rule:nonzero;stroke:none;stroke-width:0.964299"
                 id="path160" />
              <g
                 transform="matrix(0,0.50100917,-1,0,0,317.93065)"
                 id="g164">
                <path
                   d="m -223.953,-512.25 v 60"
                   style="fill:none;stroke:#000000;stroke-width:1.2;stroke-linecap:butt;stroke-linejoin:miter;stroke-miterlimit:4;stroke-dasharray:none;stroke-opacity:1"
                   id="path162" />
              </g>
              <g
                 transform="matrix(1.0692828,0,0,-1,-33.134705,312.89852)"
                 id="g168">
                <path
                   d="m 435,184.414 h 45.75"
                   style="fill:none;stroke:#000000;stroke-width:0.828402;stroke-linecap:butt;stroke-linejoin:miter;stroke-miterlimit:4;stroke-dasharray:none;stroke-opacity:1"
                   id="path166" />
              </g>
              <g
                 transform="matrix(1,0,0,-1,-6.560414,312.89852)"
                 id="g172">
                <path
                   d="m 438.312,184.414 1.661,-1.656 -5.801,1.656 5.801,1.656 z"
                   style="fill:#000000;fill-opacity:1;fill-rule:evenodd;stroke:#000000;stroke-width:0.441814;stroke-linecap:butt;stroke-linejoin:miter;stroke-miterlimit:4;stroke-dasharray:none;stroke-opacity:1"
                   id="path170" />
              </g>
              <g
                 transform="matrix(-1,0,0,1,0.1729882,312.89852)"
                 id="g176">
                <path
                   d="m -477.438,-184.414 1.657,-1.656 -5.797,1.656 5.797,1.656 z"
                   style="fill:#000000;fill-opacity:1;fill-rule:evenodd;stroke:#000000;stroke-width:0.441814;stroke-linecap:butt;stroke-linejoin:miter;stroke-miterlimit:4;stroke-dasharray:none;stroke-opacity:1"
                   id="path174" />
              </g>
              <g
                 transform="matrix(0.625,0,0,-1,0,319.81805)"
                 id="g180">
                <path
                   d="m 834,168.664 v 30"
                   style="fill:none;stroke:#000000;stroke-width:1.01578;stroke-linecap:butt;stroke-linejoin:miter;stroke-miterlimit:4;stroke-dasharray:none;stroke-opacity:1"
                   id="path178" />
              </g>
              <g
                 transform="matrix(0,1,0.625,0,0,319.81805)"
                 id="g184">
                <path
                   d="m -164.598,834 2.032,-2.031 -7.114,2.031 7.114,2.031 z"
                   style="fill:#000000;fill-opacity:1;fill-rule:evenodd;stroke:#000000;stroke-width:0.541751;stroke-linecap:butt;stroke-linejoin:miter;stroke-miterlimit:4;stroke-dasharray:none;stroke-opacity:1"
                   id="path182" />
              </g>
              <g
                 transform="matrix(0,-1,-0.625,0,0,319.81805)"
                 id="g188">
                <path
                   d="m 202.727,-834 2.031,-2.031 -7.11,2.031 7.11,2.031 z"
                   style="fill:#000000;fill-opacity:1;fill-rule:evenodd;stroke:#000000;stroke-width:0.541751;stroke-linecap:butt;stroke-linejoin:miter;stroke-miterlimit:4;stroke-dasharray:none;stroke-opacity:1"
                   id="path186" />
              </g>
              <g
                 transform="matrix(0.625,0,0,-1,0,319.81805)"
                 id="g192">
                <path
                   d="m 834,156.664 c 0,10.344 0,36 0,54"
                   style="fill:none;stroke:#000000;stroke-width:1.2;stroke-linecap:butt;stroke-linejoin:miter;stroke-miterlimit:4;stroke-dasharray:none;stroke-opacity:1"
                   id="path190" />
              </g>
              <path
                 d="m 192.668,166.267 h 2.539 c -0.742,-3.304 -0.945,-4.269 -0.945,-5.754 0,-0.336 0,-0.941 0.179,-1.707 0.227,-0.965 0.473,-1.101 0.809,-1.101 0.449,0 0.922,0.383 0.922,0.832 0,0.137 0,0.179 -0.137,0.496 -0.648,1.617 -0.648,3.055 -0.648,3.683 0,1.192 0.156,2.379 0.402,3.551 h 2.563 c 0.293,0 1.101,0 1.101,0.762 0,0.539 -0.473,0.539 -0.898,0.539 h -7.504 c -0.496,0 -1.348,0 -2.336,-1.055 -0.789,-0.875 -1.371,-1.91 -1.371,-2 0,-0.023 0,-0.226 0.269,-0.226 0.18,0 0.223,0.09 0.36,0.269 1.101,1.711 2.402,1.711 2.851,1.711 h 1.281 c -0.718,-2.699 -1.933,-5.394 -2.875,-7.437 -0.179,-0.336 -0.179,-0.383 -0.179,-0.539 0,-0.426 0.359,-0.586 0.652,-0.586 0.672,0 0.852,0.609 1.121,1.437 0.317,1.035 0.317,1.078 0.606,2.203 z"
                 style="fill:#000000;fill-opacity:1;fill-rule:evenodd;stroke:none"
                 id="path194" />
              <path
                 d="m 210.145,173.838 v 0.043 h 0.023 v 0.046 l 0.023,0.02 v 0.047 l 0.024,0.023 v 0.067 l 0.019,0.023 v 0.067 l 0.024,0.023 v 0.043 c 0,0.25 -0.203,0.449 -0.449,0.449 -0.157,0 -0.317,-0.066 -0.383,-0.199 l -7.774,-21.277 c -0.109,-0.293 -0.109,-0.383 -0.109,-0.403 0,-0.25 0.199,-0.453 0.449,-0.453 0.289,0 0.36,0.16 0.492,0.543 z"
                 style="fill:#000000;fill-opacity:1;fill-rule:evenodd;stroke:none"
                 id="path196" />
              <path
                 d="m 214.461,165.256 v 0.539 c 0,5.66 2.762,6.445 3.906,6.445 0.539,0 1.485,-0.133 1.977,-0.899 -0.336,0 -1.235,0 -1.235,-0.988 0,-0.695 0.539,-1.031 1.036,-1.031 0.359,0 1.031,0.199 1.031,1.078 0,1.324 -0.988,2.402 -2.852,2.402 -2.875,0 -5.886,-2.875 -5.886,-7.816 0,-5.953 2.605,-7.527 4.671,-7.527 2.496,0 4.629,2.09 4.629,5.031 0,2.832 -2,4.988 -4.492,4.988 l -0.023,-0.515 c 0.359,0 1.394,0 2.089,-1.395 0.403,-0.809 0.403,-1.953 0.403,-3.055 0,-1.078 0,-2.179 -0.379,-2.988 -0.676,-1.348 -1.711,-1.461 -2.227,-1.461 -1.414,0 -2.066,1.348 -2.199,1.688 -0.406,1.054 -0.406,2.828 -0.406,3.234 0,1.75 0.695,3.977 2.719,3.977 l 0.023,0.515 c -1.508,0 -2.336,-1.144 -2.785,-2.222 z"
                 style="fill:#000000;fill-opacity:1;fill-rule:evenodd;stroke:none"
                 id="path198" />
              <path
                 d="m 168.637,307.713 0.031,0.086 0.027,0.085 v 0.086 l 0.028,0.114 0.027,0.086 0.059,0.113 0.027,0.144 0.031,0.114 0.055,0.14 0.058,0.145 0.055,0.14 0.059,0.145 0.058,0.113 0.055,0.145 0.086,0.14 0.086,0.145 0.086,0.141 0.086,0.144 0.086,0.141 0.113,0.113 0.086,0.117 0.113,0.114 0.145,0.113 0.113,0.113 0.141,0.086 0.113,0.086 0.086,0.027 0.086,0.032 0.058,0.027 0.172,0.055 0.086,0.031 0.055,0.027 h 0.086 l 0.086,0.028 h 0.285 c 0.141,0 0.828,0 1.426,-0.372 -0.797,-0.14 -1.367,-0.824 -1.367,-1.507 0,-0.457 0.312,-1 1.082,-1 0.628,0 1.539,0.511 1.539,1.652 0,1.457 -1.684,1.855 -2.653,1.855 -1.652,0 -2.652,-1.484 -2.992,-2.14 -0.715,1.855 -2.226,2.14 -3.051,2.14 -2.968,0 -4.593,-3.648 -4.593,-4.363 0,-0.285 0.285,-0.285 0.343,-0.285 0.227,0 0.313,0.059 0.371,0.312 0.969,3.024 2.852,3.708 3.821,3.708 0.511,0 1.511,-0.254 1.511,-1.879 0,-0.887 -0.457,-2.797 -1.511,-6.762 -0.457,-1.738 -1.453,-2.938 -2.711,-2.938 -0.168,0 -0.824,0 -1.426,0.371 0.715,0.145 1.344,0.743 1.344,1.543 0,0.739 -0.629,0.969 -1.059,0.969 -0.855,0 -1.566,-0.715 -1.566,-1.625 0,-1.312 1.426,-1.883 2.679,-1.883 1.883,0 2.911,1.996 2.997,2.168 0.312,-1.058 1.339,-2.168 3.05,-2.168 2.938,0 4.563,3.649 4.563,4.364 0,0.285 -0.258,0.285 -0.344,0.285 -0.254,0 -0.312,-0.113 -0.371,-0.317 -0.941,-3.019 -2.879,-3.707 -3.793,-3.707 -1.109,0 -1.566,0.914 -1.566,1.883 0,0.602 0.171,1.227 0.484,2.481 z"
                 style="fill:#000000;fill-opacity:1;fill-rule:evenodd;stroke:none"
                 id="path200" />
              <path
                 d="m 306.949,131.623 0.336,0.336 0.137,0.168 0.164,0.168 0.137,0.132 1.207,1.207 0.234,0.2 0.234,0.234 0.2,0.203 0.234,0.168 0.203,0.199 0.434,0.368 0.234,0.203 0.235,0.199 c 0,0.035 2.042,1.777 3.25,2.984 3.183,3.114 3.921,4.692 3.921,4.824 0,0.336 -0.3,0.336 -0.371,0.336 -0.234,0 -0.332,-0.066 -0.5,-0.371 -1.008,-1.574 -1.711,-2.109 -2.515,-2.109 -0.801,0 -1.203,0.504 -1.707,1.039 -0.637,0.77 -1.207,1.441 -2.313,1.441 -2.48,0 -4.019,-3.082 -4.019,-3.789 0,-0.164 0.101,-0.367 0.402,-0.367 0.301,0 0.367,0.168 0.434,0.367 0.636,1.543 2.582,1.578 2.816,1.578 0.738,0 1.34,-0.234 2.109,-0.503 1.34,-0.504 1.711,-0.504 2.582,-0.504 -1.207,-1.442 -3.988,-3.821 -4.625,-4.356 l -3.015,-2.812 c -2.278,-2.215 -3.453,-4.121 -3.453,-4.356 0,-0.336 0.336,-0.336 0.402,-0.336 0.269,0 0.336,0.067 0.539,0.434 0.77,1.172 1.773,2.078 2.848,2.078 0.769,0 1.105,-0.301 1.941,-1.273 0.57,-0.704 1.141,-1.239 2.113,-1.239 3.317,0 5.258,4.223 5.258,5.125 0,0.168 -0.133,0.336 -0.402,0.336 -0.301,0 -0.367,-0.203 -0.469,-0.437 -0.769,-2.145 -2.914,-2.782 -4.019,-2.782 -0.637,0 -1.274,0.204 -1.942,0.438 -1.141,0.434 -1.644,0.57 -2.348,0.57 -0.066,0 -0.601,0 -0.906,-0.101 z"
                 style="fill:#000000;fill-opacity:1;fill-rule:evenodd;stroke:none"
                 id="path202" />
              <path
                 d="m 305.48,219.06 v -0.027 l -0.023,-0.024 v -0.105 l -0.027,-0.074 -0.028,-0.078 v -0.078 l -0.023,-0.075 -0.027,-0.105 -0.024,-0.074 v -0.079 l -0.027,-0.027 v -0.074 l -0.024,-0.027 v -0.129 l -0.027,-0.024 v -0.078 c 0,-0.461 0.359,-0.691 0.742,-0.691 0.309,0 0.77,0.203 0.949,0.718 0.051,0.102 0.922,3.563 1.028,4.024 0.203,0.82 0.664,2.613 0.82,3.308 0.102,0.333 0.793,1.512 1.41,2.075 0.203,0.179 0.949,0.847 2.051,0.847 0.664,0 1.051,-0.308 1.074,-0.308 -0.769,-0.129 -1.332,-0.742 -1.332,-1.41 0,-0.383 0.281,-0.871 0.973,-0.871 0.695,0 1.41,0.562 1.41,1.488 0,0.894 -0.82,1.664 -2.125,1.664 -1.668,0 -2.77,-1.254 -3.258,-1.973 -0.203,1.153 -1.129,1.973 -2.332,1.973 -1.18,0 -1.668,-1 -1.898,-1.461 -0.461,-0.848 -0.793,-2.383 -0.793,-2.461 0,-0.258 0.258,-0.258 0.308,-0.258 0.254,0 0.282,0.028 0.434,0.59 0.437,1.797 0.949,3.027 1.871,3.027 0.438,0 0.797,-0.207 0.797,-1.179 0,-0.539 -0.078,-0.821 -0.41,-2.129 z"
                 style="fill:#000000;fill-opacity:1;fill-rule:evenodd;stroke:none"
                 id="path204" />
              <path
                 d="m 323.812,216.982 h -0.617 c -0.05,-0.383 -0.23,-1.433 -0.461,-1.613 -0.152,-0.106 -1.539,-0.106 -1.769,-0.106 h -3.309 c 1.875,1.641 2.516,2.157 3.59,2.977 1.336,1.051 2.566,2.176 2.566,3.844 0,2.179 -1.898,3.488 -4.207,3.488 -2.203,0 -3.714,-1.539 -3.714,-3.18 0,-0.922 0.769,-1 0.945,-1 0.437,0 0.949,0.309 0.949,0.949 0,0.305 -0.129,0.922 -1.051,0.922 0.539,1.282 1.77,1.668 2.618,1.668 1.793,0 2.714,-1.386 2.714,-2.847 0,-1.539 -1.101,-2.77 -1.691,-3.41 l -4.305,-4.254 c -0.179,-0.157 -0.179,-0.18 -0.179,-0.692 h 7.382 z"
                 style="fill:#000000;fill-opacity:1;fill-rule:evenodd;stroke:none"
                 id="path206" />
              <path
                 d="m 305.684,74.209 v -0.028 l -0.028,-0.027 v -0.105 l -0.023,-0.079 -0.028,-0.082 V 73.81 l -0.027,-0.078 -0.027,-0.105 -0.024,-0.078 V 73.466 L 305.5,73.439 v -0.078 l -0.027,-0.027 v -0.129 l -0.028,-0.028 v -0.078 c 0,-0.476 0.371,-0.715 0.766,-0.715 0.32,0 0.793,0.211 0.98,0.739 0.051,0.105 0.95,3.672 1.055,4.148 0.211,0.848 0.688,2.695 0.848,3.41 0.105,0.344 0.816,1.559 1.453,2.141 0.211,0.184 0.976,0.871 2.113,0.871 0.688,0 1.082,-0.316 1.11,-0.316 -0.793,-0.133 -1.375,-0.766 -1.375,-1.453 0,-0.399 0.293,-0.899 1.003,-0.899 0.715,0 1.454,0.578 1.454,1.531 0,0.926 -0.844,1.719 -2.192,1.719 -1.719,0 -2.855,-1.297 -3.355,-2.035 -0.211,1.187 -1.164,2.035 -2.407,2.035 -1.214,0 -1.714,-1.031 -1.953,-1.508 -0.476,-0.871 -0.82,-2.457 -0.82,-2.535 0,-0.266 0.266,-0.266 0.316,-0.266 0.266,0 0.293,0.028 0.45,0.61 0.449,1.848 0.98,3.117 1.929,3.117 0.45,0 0.821,-0.211 0.821,-1.215 0,-0.554 -0.082,-0.847 -0.422,-2.195 z"
                 style="fill:#000000;fill-opacity:1;fill-rule:evenodd;stroke:none"
                 id="path208" />
              <path
                 d="m 321.43,80.416 v 0.265 h -0.024 v 0.078 l -0.027,0.028 v 0.027 l -0.027,0.024 -0.028,0.027 -0.023,0.027 h -0.082 v 0.028 h -0.344 c -1.187,-1.164 -2.852,-1.164 -3.617,-1.164 v -0.661 c 0.449,0 1.664,0 2.668,0.5 v -9.379 c 0,-0.582 0,-0.843 -1.852,-0.843 h -0.683 v -0.66 c 0.316,0.023 2.586,0.078 3.273,0.078 0.582,0 2.906,-0.055 3.305,-0.078 v 0.66 h -0.688 c -1.851,0 -1.851,0.261 -1.851,0.843 z"
                 style="fill:#000000;fill-opacity:1;fill-rule:evenodd;stroke:none"
                 id="path210" />
              <path
                 d="m 641.777,162.99 v -0.027 l -0.027,-0.028 v -0.105 l -0.055,-0.156 v -0.083 l -0.023,-0.078 -0.027,-0.105 -0.028,-0.078 v -0.082 l -0.027,-0.024 v -0.082 l -0.024,-0.027 v -0.129 l -0.027,-0.027 v -0.078 c 0,-0.477 0.367,-0.715 0.766,-0.715 0.316,0 0.793,0.211 0.976,0.738 0.055,0.105 0.953,3.676 1.059,4.148 0.211,0.848 0.687,2.696 0.844,3.411 0.105,0.343 0.82,1.558 1.453,2.14 0.211,0.184 0.976,0.871 2.113,0.871 0.688,0 1.086,-0.316 1.109,-0.316 -0.793,-0.133 -1.371,-0.766 -1.371,-1.453 0,-0.399 0.289,-0.899 1.004,-0.899 0.711,0 1.453,0.582 1.453,1.532 0,0.925 -0.847,1.718 -2.195,1.718 -1.715,0 -2.852,-1.297 -3.355,-2.035 -0.211,1.188 -1.161,2.035 -2.403,2.035 -1.215,0 -1.719,-1.031 -1.957,-1.507 -0.473,-0.872 -0.816,-2.458 -0.816,-2.536 0,-0.265 0.261,-0.265 0.316,-0.265 0.262,0 0.289,0.027 0.449,0.609 0.45,1.848 0.977,3.117 1.926,3.117 0.449,0 0.82,-0.211 0.82,-1.215 0,-0.554 -0.078,-0.847 -0.421,-2.195 z"
                 style="fill:#000000;fill-opacity:1;fill-rule:evenodd;stroke:none"
                 id="path212" />
              <path
                 d="m 657.523,169.197 v 0.266 h -0.027 v 0.078 l -0.027,0.027 v 0.027 l -0.078,0.079 h -0.079 v 0.027 h -0.343 c -1.188,-1.164 -2.856,-1.164 -3.621,-1.164 v -0.66 c 0.449,0 1.664,0 2.668,0.504 v -9.383 c 0,-0.578 0,-0.844 -1.848,-0.844 h -0.688 v -0.66 c 0.317,0.027 2.59,0.078 3.278,0.078 0.582,0 2.906,-0.051 3.301,-0.078 v 0.66 h -0.688 c -1.848,0 -1.848,0.266 -1.848,0.844 z"
                 style="fill:#000000;fill-opacity:1;fill-rule:evenodd;stroke:none"
                 id="path214" />
              <path
                 d="m 492.5,305.138 v -0.023 l -0.023,-0.027 v -0.102 l -0.028,-0.078 -0.027,-0.074 v -0.078 l -0.024,-0.079 -0.027,-0.101 -0.023,-0.078 v -0.074 l -0.028,-0.028 v -0.078 l -0.023,-0.023 v -0.129 l -0.027,-0.028 v -0.074 c 0,-0.461 0.359,-0.695 0.742,-0.695 0.308,0 0.769,0.207 0.949,0.719 0.051,0.105 0.922,3.562 1.027,4.027 0.203,0.82 0.664,2.613 0.821,3.305 0.101,0.336 0.793,1.511 1.41,2.078 0.203,0.179 0.945,0.843 2.051,0.843 0.664,0 1.05,-0.304 1.074,-0.304 -0.77,-0.129 -1.332,-0.746 -1.332,-1.41 0,-0.387 0.281,-0.871 0.972,-0.871 0.696,0 1.411,0.562 1.411,1.484 0,0.898 -0.821,1.668 -2.125,1.668 -1.668,0 -2.77,-1.258 -3.258,-1.977 -0.203,1.157 -1.129,1.977 -2.332,1.977 -1.18,0 -1.668,-1 -1.899,-1.461 -0.461,-0.848 -0.793,-2.387 -0.793,-2.461 0,-0.258 0.254,-0.258 0.309,-0.258 0.254,0 0.281,0.028 0.433,0.59 0.438,1.793 0.95,3.023 1.872,3.023 0.437,0 0.796,-0.203 0.796,-1.175 0,-0.539 -0.078,-0.821 -0.41,-2.129 z"
                 style="fill:#000000;fill-opacity:1;fill-rule:evenodd;stroke:none"
                 id="path216" />
              <path
                 d="m 510.832,303.064 h -0.617 c -0.051,-0.387 -0.231,-1.437 -0.461,-1.617 -0.152,-0.102 -1.539,-0.102 -1.77,-0.102 h -3.308 c 1.875,1.641 2.515,2.153 3.59,2.973 1.336,1.051 2.566,2.18 2.566,3.848 0,2.179 -1.898,3.484 -4.207,3.484 -2.203,0 -3.715,-1.535 -3.715,-3.176 0,-0.925 0.77,-1 0.945,-1 0.438,0 0.95,0.305 0.95,0.946 0,0.308 -0.129,0.925 -1.051,0.925 0.539,1.282 1.769,1.664 2.617,1.664 1.793,0 2.715,-1.382 2.715,-2.843 0,-1.539 -1.102,-2.77 -1.691,-3.41 l -4.305,-4.258 c -0.18,-0.153 -0.18,-0.176 -0.18,-0.692 h 7.383 z"
                 style="fill:#000000;fill-opacity:1;fill-rule:evenodd;stroke:none"
                 id="path218" />
              <path
                 d="m 461.77799,140.16445 -0.046,0.07 -0.024,0.071 -0.047,0.09 -0.047,0.07 -0.043,0.07 -0.046,0.071 -0.047,0.066 -0.047,0.07 -0.07,0.071 -0.043,0.066 -0.231,0.23 -0.141,0.094 -0.046,0.047 -0.067,0.047 -0.07,0.043 -0.094,0.047 -0.066,0.023 -0.071,0.047 -0.07,0.024 -0.09,0.023 -0.07,0.047 h -0.094 l -0.09,0.019 -0.093,0.024 -0.067,0.023 h -0.301 c -2.675,0 -5.531,-3.363 -5.531,-6.707 0,-2.144 1.266,-3.664 3.063,-3.664 l 0.046,0.508 c -1.152,0 -1.472,1.266 -1.472,2.141 0,1.156 0.734,3.964 1.265,5.027 0.715,1.359 1.754,2.187 2.653,2.187 1.496,0 1.82,-1.867 1.82,-2.003 0,-0.137 -0.047,-0.278 -0.07,-0.391 l -1.153,-4.496 c -0.113,-0.414 -0.113,-0.461 -0.46,-0.828 -0.993,-1.27 -1.938,-1.637 -2.583,-1.637 l -0.046,-0.508 c 0.461,0 1.593,0.094 2.976,1.727 0.184,-0.965 0.988,-1.727 2.098,-1.727 0.805,0 1.336,0.531 1.703,1.266 0.395,0.832 0.691,2.215 0.691,2.262 0,0.23 -0.207,0.23 -0.277,0.23 -0.23,0 -0.25,-0.094 -0.32,-0.414 -0.391,-1.477 -0.809,-2.836 -1.754,-2.836 -0.621,0 -0.692,0.598 -0.692,1.059 0,0.507 0.047,0.691 0.301,1.683 0.254,0.969 0.301,1.199 0.508,2.074 l 0.828,3.204 c 0.164,0.644 0.164,0.667 0.164,0.785 0,0.367 -0.277,0.597 -0.668,0.597 -0.554,0 -0.902,-0.484 -0.969,-0.992 z"
                 style="fill:#000000;fill-opacity:1;fill-rule:evenodd;stroke:none"
                 id="path220" />
              <path
                 d="m 512.98026,137.13955 -0.046,0.07 -0.024,0.071 -0.047,0.09 -0.047,0.07 -0.043,0.07 -0.046,0.071 -0.047,0.066 -0.047,0.07 -0.07,0.071 -0.043,0.066 -0.231,0.23 -0.141,0.094 -0.046,0.047 -0.067,0.047 -0.07,0.043 -0.094,0.047 -0.066,0.023 -0.071,0.047 -0.07,0.024 -0.09,0.023 -0.07,0.047 h -0.094 l -0.09,0.019 -0.093,0.024 -0.067,0.023 h -0.301 c -2.675,0 -5.531,-3.363 -5.531,-6.707 0,-2.144 1.266,-3.664 3.063,-3.664 l 0.046,0.508 c -1.152,0 -1.472,1.266 -1.472,2.141 0,1.156 0.734,3.964 1.265,5.027 0.715,1.359 1.754,2.187 2.653,2.187 1.496,0 1.82,-1.867 1.82,-2.003 0,-0.137 -0.047,-0.278 -0.07,-0.391 l -1.153,-4.496 c -0.113,-0.414 -0.113,-0.461 -0.46,-0.828 -0.993,-1.27 -1.938,-1.637 -2.583,-1.637 l -0.046,-0.508 c 0.461,0 1.593,0.094 2.976,1.727 0.184,-0.965 0.988,-1.727 2.098,-1.727 0.805,0 1.336,0.531 1.703,1.266 0.395,0.832 0.691,2.215 0.691,2.262 0,0.23 -0.207,0.23 -0.277,0.23 -0.23,0 -0.25,-0.094 -0.32,-0.414 -0.391,-1.477 -0.809,-2.836 -1.754,-2.836 -0.621,0 -0.692,0.598 -0.692,1.059 0,0.507 0.047,0.691 0.301,1.683 0.254,0.969 0.301,1.199 0.508,2.074 l 0.828,3.204 c 0.164,0.644 0.164,0.667 0.164,0.785 0,0.367 -0.277,0.597 -0.668,0.597 -0.554,0 -0.902,-0.484 -0.969,-0.992 z"
                 style="fill:#000000;fill-opacity:1;fill-rule:evenodd;stroke:none"
                 id="path220-3" />
              <path
                 d="m 7.121,294.267 -0.055,0.078 -0.078,0.055 -0.105,0.078 -0.078,0.106 -0.106,0.078 -0.082,0.105 -0.316,0.317 -0.106,0.132 -0.129,0.133 -0.105,0.129 -0.133,0.16 -0.105,0.133 -0.133,0.156 -0.133,0.184 -0.105,0.16 -0.129,0.184 -0.133,0.183 -0.133,0.211 -0.105,0.211 -0.133,0.211 -0.129,0.211 -0.106,0.238 -0.132,0.239 -0.133,0.261 -0.106,0.266 -0.133,0.262 -0.105,0.293 -0.211,0.578 -0.105,0.316 c -0.684,2.059 -1,4.457 -1,6.778 0,5.168 1.343,9.253 4.246,12.183 0.367,0.395 0.394,0.422 0.394,0.551 0,0.293 -0.238,0.371 -0.449,0.371 -0.449,0 -1.555,-0.977 -2.031,-1.426 C 0.605,314.334 0,309.509 0,306.74 c 0,-3.27 0.871,-6.172 2.109,-8.332 1.743,-3.008 4.141,-4.774 4.641,-4.774 0.211,0 0.449,0.079 0.449,0.368 0,0.132 -0.078,0.238 -0.078,0.265 z"
                 style="fill:#000000;fill-opacity:1;fill-rule:evenodd;stroke:none"
                 id="path258" />
              <path
                 d="m 18.75,302.177 v -0.394 l 0.023,-0.082 v -0.106 l 0.028,-0.078 v -0.078 l 0.027,-0.078 0.027,-0.105 0.024,-0.082 0.055,-0.079 0.05,-0.078 0.055,-0.078 0.051,-0.082 0.082,-0.078 0.051,-0.051 0.105,-0.082 0.027,-0.023 0.051,-0.028 0.055,-0.054 0.051,-0.024 0.054,-0.027 0.079,-0.027 0.054,-0.028 0.078,-0.023 0.051,-0.028 0.082,-0.027 0.078,-0.027 0.051,-0.024 h 0.082 l 0.106,-0.027 0.078,-0.027 h 0.078 l 0.105,-0.028 h 0.078 l 0.106,-0.023 h 0.105 l 0.106,-0.027 h 0.476 l 0.133,-0.028 h 1.266 c 0.527,0 0.816,0 0.816,0.633 0,0.605 -0.344,0.605 -0.687,0.605 -1.582,0.028 -1.582,0.372 -1.582,0.977 v 5.617 c 0,2.348 -1.871,4.035 -5.801,4.035 -1.504,0 -4.692,-0.078 -4.692,-2.398 0,-1.16 0.922,-1.637 1.633,-1.637 0.817,0 1.637,0.528 1.637,1.637 0,0.789 -0.504,1.238 -0.582,1.289 0.738,0.16 1.582,0.187 1.898,0.187 1.981,0 2.903,-1.109 2.903,-3.113 v -4.168 c 0,-2.531 -2.426,-2.871 -3.086,-2.871 -1.32,0 -2.375,0.922 -2.375,2.082 0,2.82 4.14,3.192 5.461,3.27 v 0.816 c -1.871,-0.078 -8.543,-0.316 -8.543,-4.113 0,-2.531 3.269,-2.981 5.062,-2.981 2.11,0 3.348,1.055 3.93,2.164 z"
                 style="fill:#000000;fill-opacity:1;fill-rule:evenodd;stroke:none"
                 id="path260" />
              <path
                 d="m 32.488,306.713 v 0.605 l -0.054,0.609 -0.028,0.579 -0.078,0.582 -0.078,0.578 -0.105,0.554 -0.106,0.528 -0.133,0.527 -0.16,0.527 -0.156,0.5 -0.184,0.5 -0.187,0.477 -0.184,0.473 -0.211,0.449 -0.211,0.422 -0.238,0.422 c -1.738,3.007 -4.113,4.773 -4.613,4.773 -0.211,0 -0.473,-0.078 -0.473,-0.371 0,-0.129 0,-0.184 0.445,-0.606 3.297,-3.347 4.196,-7.988 4.196,-12.101 0,-5.168 -1.348,-9.281 -4.219,-12.184 -0.399,-0.394 -0.422,-0.422 -0.422,-0.554 0,-0.289 0.262,-0.368 0.473,-0.368 0.449,0 1.554,0.977 2.004,1.422 4.113,4.063 4.722,8.864 4.722,11.657 z"
                 style="fill:#000000;fill-opacity:1;fill-rule:evenodd;stroke:none"
                 id="path262" />
              <path
                 d="m 315.094,294.267 -0.082,0.078 -0.078,0.055 -0.684,0.684 -0.105,0.132 -0.133,0.133 -0.106,0.129 -0.105,0.16 -0.133,0.133 -0.133,0.156 -0.105,0.184 -0.133,0.16 -0.129,0.184 -0.133,0.183 -0.105,0.211 -0.266,0.422 -0.129,0.211 -0.105,0.238 -0.133,0.239 -0.106,0.261 -0.132,0.266 -0.106,0.262 -0.133,0.293 -0.211,0.578 -0.105,0.316 c -0.684,2.059 -1,4.457 -1,6.778 0,5.168 1.344,9.253 4.246,12.183 0.395,0.395 0.422,0.422 0.422,0.551 0,0.293 -0.266,0.371 -0.477,0.371 -0.445,0 -1.554,-0.977 -2.031,-1.426 -4.113,-4.058 -4.719,-8.883 -4.719,-11.652 0,-3.27 0.871,-6.172 2.11,-8.332 1.742,-3.008 4.14,-4.774 4.64,-4.774 0.211,0 0.477,0.079 0.477,0.368 0,0.132 -0.078,0.238 -0.078,0.265 z"
                 style="fill:#000000;fill-opacity:1;fill-rule:evenodd;stroke:none"
                 id="path264" />
              <path
                 d="m 322.5,310.67 v 7.671 l -4.664,-0.21 v -1.239 c 1.633,0 1.816,0 1.816,-1.004 v -15.742 h 1.243 l 1.289,1.477 c 0.211,-0.211 1.476,-1.61 3.824,-1.61 l -0.238,0.926 c -1.844,0 -2.848,1.422 -3.11,1.817 v 6.566 c 0.684,0.926 1.949,1.687 3.402,1.687 3.215,0 3.215,-3.164 3.215,-5.007 0,-1.239 0,-2.664 -0.683,-3.692 -0.766,-1.082 -1.981,-1.371 -2.824,-1.371 l 0.238,-0.926 c 3.93,0 6.644,2.348 6.644,5.989 0,3.48 -2.476,5.933 -6.3,5.933 -1.926,0 -3.219,-0.738 -3.852,-1.265 z"
                 style="fill:#000000;fill-opacity:1;fill-rule:evenodd;stroke:none"
                 id="path266" />
              <path
                 d="m 342.543,306.713 -0.027,0.605 -0.028,0.609 -0.05,0.579 -0.055,0.582 -0.078,0.578 -0.106,0.554 -0.265,1.055 -0.129,0.527 -0.16,0.5 -0.184,0.5 -0.184,0.477 -0.187,0.473 -0.211,0.449 -0.211,0.422 -0.234,0.422 c -1.743,3.007 -4.114,4.773 -4.641,4.773 -0.188,0 -0.449,-0.078 -0.449,-0.371 0,-0.129 0,-0.184 0.422,-0.606 3.32,-3.347 4.218,-7.988 4.218,-12.101 0,-5.168 -1.343,-9.281 -4.218,-12.184 -0.395,-0.394 -0.422,-0.422 -0.422,-0.554 0,-0.289 0.261,-0.368 0.449,-0.368 0.473,0 1.555,0.977 2.027,1.422 4.114,4.063 4.723,8.864 4.723,11.657 z"
                 style="fill:#000000;fill-opacity:1;fill-rule:evenodd;stroke:none"
                 id="path268" />
              <text
                 xml:space="preserve"
                 style="font-size:32.3198px;fill:#000000;stroke-width:1.00999"
                 x="453.91217"
                 y="-155.11002"
                 id="text3146"
                 transform="scale(1,-1)"><tspan
                   sodipodi:role="line"
                   id="tspan3144"
                   style="font-style:normal;font-variant:normal;font-weight:normal;font-stretch:normal;font-size:32.3198px;font-family:'Latin Modern Roman';-inkscape-font-specification:'Latin Modern Roman, ';stroke-width:1.00999"
                   x="453.91217"
                   y="-155.11002">N<tspan
   style="font-size:65%;baseline-shift:super"
   id="tspan5107" /></tspan></text>
              <text
                 xml:space="preserve"
                 style="font-style:normal;font-variant:normal;font-weight:normal;font-stretch:normal;font-size:29.6264px;font-family:'Latin Modern Roman';-inkscape-font-specification:'Latin Modern Roman, ';fill:#000000;stroke-width:1.00999"
                 x="368.89542"
                 y="-154.91356"
                 id="text3243"
                 transform="scale(1,-1)"><tspan
                   sodipodi:role="line"
                   id="tspan3241"
                   style="font-size:29.6264px;stroke-width:1.00999"
                   x="368.89542"
                   y="-154.91356">S<tspan
   style="font-size:65%;baseline-shift:super"
   id="tspan5109">1</tspan></tspan></text>
              <text
                 xml:space="preserve"
                 style="font-style:normal;font-variant:normal;font-weight:normal;font-stretch:normal;font-size:32.3198px;font-family:'Latin Modern Roman';-inkscape-font-specification:'Latin Modern Roman, ';fill:#000000;stroke-width:1.00999"
                 x="379.51505"
                 y="-52.067062"
                 id="text3407-6"
                 transform="scale(1,-1)"><tspan
                   sodipodi:role="line"
                   id="tspan3405-46"
                   style="stroke-width:1.00999"
                   x="379.51505"
                   y="-52.067062">D</tspan></text>
              <text
                 xml:space="preserve"
                 style="font-style:normal;font-variant:normal;font-weight:normal;font-stretch:normal;font-size:29.6264px;font-family:'Latin Modern Roman';-inkscape-font-specification:'Latin Modern Roman, ';fill:#000000;stroke-width:1.00999"
                 x="452.84222"
                 y="-43.419552"
                 id="text3243-74"
                 transform="scale(1,-1)"><tspan
                   sodipodi:role="line"
                   id="tspan3241-8"
                   style="font-size:29.6264px;stroke-width:1.00999"
                   x="452.84222"
                   y="-43.419552">S<tspan
   style="font-size:65%;baseline-shift:super"
   id="tspan5117">2</tspan></tspan></text>
              <text
                 xml:space="preserve"
                 style="font-style:normal;font-variant:normal;font-weight:normal;font-stretch:normal;font-size:29.6264px;font-family:'Latin Modern Roman';-inkscape-font-specification:'Latin Modern Roman, ';fill:#000000;stroke-width:1.00999"
                 x="557.78864"
                 y="-124.70907"
                 id="text3243-7"
                 transform="scale(1,-1)"><tspan
                   sodipodi:role="line"
                   id="tspan3241-7"
                   style="font-size:29.6264px;stroke-width:1.00999"
                   x="557.78864"
                   y="-124.70907">S<tspan
   style="font-size:65%;baseline-shift:super"
   id="tspan5113">1</tspan></tspan></text>
              <text
                 xml:space="preserve"
                 style="font-style:normal;font-variant:normal;font-weight:normal;font-stretch:normal;font-size:29.6264px;font-family:'Latin Modern Roman';-inkscape-font-specification:'Latin Modern Roman, ';fill:#000000;stroke-width:1.00999"
                 x="483.82916"
                 y="-254.5631"
                 id="text3243-8"
                 transform="scale(1,-1)"><tspan
                   sodipodi:role="line"
                   id="tspan3241-76"
                   style="font-size:29.6264px;stroke-width:1.00999"
                   x="483.82916"
                   y="-254.5631">S<tspan
   style="font-size:65%;baseline-shift:super"
   id="tspan5115">2</tspan></tspan></text>
              <text
                 xml:space="preserve"
                 style="font-style:normal;font-variant:normal;font-weight:normal;font-stretch:normal;font-size:32.3198px;font-family:'Latin Modern Roman';-inkscape-font-specification:'Latin Modern Roman, ';fill:#000000;stroke-width:1.00999"
                 x="379.51505"
                 y="-229.56898"
                 id="text3407"
                 transform="scale(1,-1)"><tspan
                   sodipodi:role="line"
                   id="tspan3405"
                   style="stroke-width:1.00999"
                   x="379.51505"
                   y="-229.56898">D</tspan></text>
              <text
                 xml:space="preserve"
                 style="font-style:normal;font-variant:normal;font-weight:normal;font-stretch:normal;font-size:32.3198px;font-family:'Latin Modern Roman';-inkscape-font-specification:'Latin Modern Roman, ';fill:#000000;stroke-width:1.00999"
                 x="554.16669"
                 y="-229.56898"
                 id="text3407-0"
                 transform="scale(1,-1)"><tspan
                   sodipodi:role="line"
                   id="tspan3405-4"
                   style="stroke-width:1.00999"
                   x="554.16669"
                   y="-229.56898">D</tspan></text>
              <text
                 xml:space="preserve"
                 style="font-style:normal;font-variant:normal;font-weight:normal;font-stretch:normal;font-size:32.3198px;font-family:'Latin Modern Roman';-inkscape-font-specification:'Latin Modern Roman, ';fill:#000000;stroke-width:1.00999"
                 x="554.16669"
                 y="-52.067062"
                 id="text3407-4"
                 transform="scale(1,-1)"><tspan
                   sodipodi:role="line"
                   id="tspan3405-3"
                   style="stroke-width:1.00999"
                   x="554.16669"
                   y="-52.067062">D</tspan></text>
              <text
                 xml:space="preserve"
                 style="font-style:normal;font-variant:normal;font-weight:normal;font-stretch:normal;font-size:21.5465px;font-family:'Latin Modern Roman';-inkscape-font-specification:'Latin Modern Roman, ';fill:#000000;stroke-width:1.00999"
                 x="442.65753"
                 y="-131.6714"
                 id="text5990"
                 transform="scale(1,-1)"><tspan
                   sodipodi:role="line"
                   id="tspan5988"
                   style="font-size:21.5465px;stroke-width:1.00999"
                   x="442.65753"
                   y="-131.6714">2</tspan></text>
            </g>
          </g>
        </g>
      </g>
    </g>
  </g>
</svg>
